<svg width="48" height="48" viewBox="0 0 48 48" fill="none" xmlns="http://www.w3.org/2000/svg">
<path d="M43.5156 13.4344C42.8873 11.9796 41.9813 10.6612 40.8484 9.55316C39.7147 8.44178 38.378 7.55858 36.9109 6.9516C35.3897 6.31969 33.7582 5.99624 32.1109 6.00003C29.8 6.00003 27.5453 6.63285 25.5859 7.82816C25.1172 8.1141 24.6719 8.42816 24.25 8.77035C23.8281 8.42816 23.3828 8.1141 22.9141 7.82816C20.9547 6.63285 18.7 6.00003 16.3891 6.00003C14.725 6.00003 13.1125 6.31878 11.5891 6.9516C10.1172 7.56097 8.79062 8.43753 7.65156 9.55316C6.51717 10.66 5.61099 11.9786 4.98438 13.4344C4.33281 14.9485 4 16.5563 4 18.211C4 19.7719 4.31875 21.3985 4.95156 23.0532C5.48125 24.436 6.24062 25.8703 7.21094 27.3188C8.74844 29.611 10.8625 32.0016 13.4875 34.425C17.8375 38.4422 22.1453 41.2172 22.3281 41.3297L23.4391 42.0422C23.9313 42.3563 24.5641 42.3563 25.0563 42.0422L26.1672 41.3297C26.35 41.2125 30.6531 38.4422 35.0078 34.425C37.6328 32.0016 39.7469 29.611 41.2844 27.3188C42.2547 25.8703 43.0187 24.436 43.5437 23.0532C44.1766 21.3985 44.4953 19.7719 44.4953 18.211C44.5 16.5563 44.1672 14.9485 43.5156 13.4344V13.4344Z" fill="#412B73"/>
<path d="M16.9649 25.588C15.9209 25.588 15.1889 24.46 15.1889 22.708C15.1889 20.968 15.9209 19.84 16.9649 19.84C17.9969 19.84 18.7289 20.968 18.7289 22.708C18.7289 24.46 17.9969 25.588 16.9649 25.588ZM16.9649 18.952C15.3809 18.952 14.2529 20.416 14.2529 22.708C14.2529 25 15.3809 26.464 16.9649 26.464C18.5489 26.464 19.6649 25 19.6649 22.708C19.6649 20.416 18.5489 18.952 16.9649 18.952ZM24.1529 22.42H22.3769V18.136H21.3929V28.888H22.3769V23.248H24.1529V22.42ZM27.5 25.48H26.18V22.684H27.5V25.48ZM27.5 21.892H26.18V19.132H25.34V26.284H28.316V19.132H27.5V21.892ZM30.992 25.48H29.72V22.684H30.992V25.48ZM30.992 21.892H29.72V19.132H28.892V26.284H31.82V19.132H30.992V21.892ZM35.144 22.324H33.704V18.124H32.732V28.888H33.704V23.152H35.144V22.324Z" fill="white"/>
</svg>
