<svg width="40" height="35" viewBox="0 0 40 35" fill="none" xmlns="http://www.w3.org/2000/svg">
<path d="M20 0C31.0457 0 40 6.64494 40 14.8441C40 23.0415 31.0457 29.6864 20 29.6864C18.9002 29.687 17.8014 29.6203 16.7105 29.4869L8.31432 34.7154C7.36003 35.196 7.02289 35.1434 7.41527 33.9664L9.11432 27.2961C3.6286 24.6483 3.05176e-05 20.0599 3.05176e-05 14.8441C3.05176e-05 6.64675 8.95432 0 20 0ZM31.2515 14.6174L34.0515 12.0349C34.213 11.8751 34.3032 11.6619 34.3029 11.4401C34.3026 11.2183 34.2119 11.0053 34.05 10.8459C33.888 10.6865 33.6674 10.5932 33.4346 10.5856C33.2018 10.5781 32.975 10.6568 32.8019 10.8053L29.1296 14.1894V11.3929C29.1296 11.1658 29.0348 10.9481 28.8662 10.7876C28.6976 10.6271 28.4689 10.5369 28.2305 10.5369C27.9921 10.5369 27.7634 10.6271 27.5948 10.7876C27.4262 10.9481 27.3315 11.1658 27.3315 11.3929V16.0302C27.2978 16.1625 27.2978 16.3005 27.3315 16.4328V19.0425C27.3315 19.2696 27.4262 19.4873 27.5948 19.6478C27.7634 19.8084 27.9921 19.8985 28.2305 19.8985C28.4689 19.8985 28.6976 19.8084 28.8662 19.6478C29.0348 19.4873 29.1296 19.2696 29.1296 19.0425V16.5706L29.9429 15.8216L32.6629 19.5086C32.7308 19.6007 32.8171 19.6791 32.9168 19.7394C33.0166 19.7997 33.1278 19.8407 33.2442 19.86C33.3606 19.8794 33.4798 19.8768 33.5951 19.8523C33.7104 19.8277 33.8195 19.7818 33.9162 19.7172C34.0129 19.6525 34.0953 19.5704 34.1586 19.4754C34.2219 19.3804 34.265 19.2745 34.2853 19.1637C34.3057 19.0529 34.3029 18.9394 34.2771 18.8296C34.2514 18.7198 34.2032 18.6159 34.1353 18.5238L31.2515 14.6156V14.6174ZM25.6172 18.1067H22.8362V11.4201C22.8256 11.2001 22.7263 10.9925 22.559 10.8404C22.3918 10.6883 22.1694 10.6035 21.9381 10.6035C21.7068 10.6035 21.4845 10.6883 21.3172 10.8404C21.1499 10.9925 21.0507 11.2001 21.04 11.4201V18.9627C21.04 19.4343 21.44 19.8187 21.9372 19.8187H25.6172C25.8556 19.8187 26.0843 19.7286 26.2529 19.568C26.4215 19.4075 26.5162 19.1898 26.5162 18.9627C26.5162 18.7357 26.4215 18.518 26.2529 18.3574C26.0843 18.1969 25.8556 18.1067 25.6172 18.1067ZM14.461 16.1263L15.7867 13.0305L17.0019 16.1263H14.461ZM19.2667 17.0113L19.2705 16.9823C19.2701 16.7667 19.1836 16.5592 19.0286 16.402L17.0362 11.324C16.9527 11.082 16.7936 10.87 16.5802 10.7164C16.3668 10.5628 16.1092 10.4749 15.8419 10.4643C15.5727 10.4632 15.3094 10.5402 15.0873 10.685C14.8651 10.8298 14.6945 11.0356 14.5981 11.275L11.4343 18.6653C11.3897 18.7694 11.367 18.8808 11.3676 18.9932C11.3681 19.1057 11.392 19.2169 11.4377 19.3205C11.4834 19.4242 11.5501 19.5182 11.634 19.5974C11.7179 19.6765 11.8174 19.7391 11.9267 19.7816C12.036 19.8241 12.153 19.8457 12.2711 19.8451C12.3892 19.8446 12.506 19.8219 12.6149 19.7783C12.7237 19.7348 12.8225 19.6713 12.9056 19.5914C12.9887 19.5115 13.0544 19.4168 13.0991 19.3128L13.7276 17.8383H17.6705L18.24 19.2892C18.2788 19.3976 18.3399 19.4976 18.42 19.5831C18.5 19.6686 18.5972 19.738 18.7059 19.7871C18.8146 19.8362 18.9326 19.864 19.0528 19.8689C19.173 19.8738 19.293 19.8557 19.4057 19.8156C19.5184 19.7756 19.6215 19.7144 19.7089 19.6357C19.7963 19.557 19.8663 19.4624 19.9146 19.3575C19.9629 19.2526 19.9886 19.1395 19.9902 19.025C19.9918 18.9104 19.9692 18.7968 19.9238 18.6907L19.2667 17.0113ZM12.9391 11.4291C12.9391 11.2024 12.8446 10.985 12.6764 10.8245C12.5082 10.664 12.28 10.5736 12.0419 10.5731H5.86098C5.62254 10.5731 5.39386 10.6633 5.22526 10.8239C5.05666 10.9844 4.96194 11.2021 4.96194 11.4291C4.96194 11.6562 5.05666 11.8739 5.22526 12.0344C5.39386 12.195 5.62254 12.2852 5.86098 12.2852H8.07051V19.0607C8.07051 19.2877 8.16523 19.5054 8.33383 19.666C8.50244 19.8265 8.73111 19.9167 8.96955 19.9167C9.208 19.9167 9.43667 19.8265 9.60528 19.666C9.77388 19.5054 9.8686 19.2877 9.8686 19.0607V12.2852H12.04C12.2785 12.2852 12.5071 12.195 12.6758 12.0344C12.8444 11.8739 12.9391 11.6562 12.9391 11.4291Z" fill="white"/>
</svg>
