<svg width="36" height="36" viewBox="0 0 36 36" fill="none" xmlns="http://www.w3.org/2000/svg">
<path d="M32.4 13.2714V26.1C32.4 27.2934 31.9259 28.438 31.082 29.2819C30.2381 30.1258 29.0935 30.6 27.9 30.6H8.10001C6.90653 30.6 5.76194 30.1258 4.91803 29.2819C4.07411 28.438 3.60001 27.2934 3.60001 26.1V13.2714L17.5428 21.4757C17.6813 21.5574 17.8392 21.6005 18 21.6005C18.1608 21.6005 18.3187 21.5574 18.4572 21.4757L32.4 13.2714ZM27.9 7.19995C29.0073 7.19978 30.0757 7.60784 30.901 8.34608C31.7262 9.08432 32.2503 10.1009 32.373 11.2014L18 19.656L3.62701 11.2014C3.74969 10.1009 4.27379 9.08432 5.09904 8.34608C5.92428 7.60784 6.99274 7.19978 8.10001 7.19995H27.9Z" fill="white"/>
</svg>
