<svg width="48" height="48" viewBox="0 0 48 48" fill="none" xmlns="http://www.w3.org/2000/svg">
<path d="M43.5156 13.4344C42.8873 11.9796 41.9813 10.6612 40.8484 9.55316C39.7147 8.44178 38.3779 7.55858 36.9109 6.9516C35.3897 6.31969 33.7582 5.99624 32.1109 6.00003C29.8 6.00003 27.5453 6.63285 25.5859 7.82816C25.1172 8.1141 24.6719 8.42816 24.25 8.77035C23.8281 8.42816 23.3828 8.1141 22.9141 7.82816C20.9547 6.63285 18.7 6.00003 16.3891 6.00003C14.725 6.00003 13.1125 6.31878 11.5891 6.9516C10.1172 7.56097 8.79062 8.43753 7.65156 9.55316C6.51717 10.66 5.61099 11.9786 4.98438 13.4344C4.33281 14.9485 4 16.5563 4 18.211C4 19.7719 4.31875 21.3985 4.95156 23.0532C5.48125 24.436 6.24062 25.8703 7.21094 27.3188C8.74844 29.611 10.8625 32.0016 13.4875 34.425C17.8375 38.4422 22.1453 41.2172 22.3281 41.3297L23.4391 42.0422C23.9313 42.3563 24.5641 42.3563 25.0563 42.0422L26.1672 41.3297C26.35 41.2125 30.6531 38.4422 35.0078 34.425C37.6328 32.0016 39.7469 29.611 41.2844 27.3188C42.2547 25.8703 43.0187 24.436 43.5437 23.0532C44.1766 21.3985 44.4953 19.7719 44.4953 18.211C44.5 16.5563 44.1672 14.9485 43.5156 13.4344Z" fill="#DE3026"/>
<path d="M16.9289 25.648H22.0049V27.952H16.9289V25.648ZM15.9689 28.744H22.9649V24.868H15.9689V28.744ZM17.0369 22.996C15.9689 22.996 15.2009 22.288 15.2009 21.268C15.2009 20.272 15.9689 19.576 17.0369 19.576C18.0929 19.576 18.8609 20.272 18.8609 21.268C18.8609 22.288 18.0929 22.996 17.0369 22.996ZM21.9689 18.136V20.836H19.7609C19.5569 19.588 18.4769 18.748 17.0369 18.748C15.4289 18.748 14.2649 19.78 14.2649 21.268C14.2649 22.792 15.4289 23.824 17.0369 23.824C18.5009 23.824 19.5929 22.96 19.7729 21.652H21.9689V24.316H22.9649V18.136H21.9689ZM26.528 19.996H29.54V25.36H26.528V19.996ZM25.568 26.152H30.5V19.204H25.568V26.152ZM35.192 22.42H33.416V18.136H32.432V28.888H33.416V23.248H35.192V22.42Z" fill="white"/>
</svg>
