<svg width="36" height="36" viewBox="0 0 36 36" fill="none" xmlns="http://www.w3.org/2000/svg">
<path d="M27 14.625H24.75C24.7491 13.7302 24.3932 12.8722 23.7605 12.2395C23.1278 11.6068 22.2698 11.2509 21.375 11.25V9C22.8663 9.00179 24.296 9.59499 25.3505 10.6495C26.405 11.704 26.9982 13.1337 27 14.625Z" fill="white"/>
<path d="M31.5 14.625H29.25C29.2476 12.5372 28.4172 10.5355 26.9408 9.05918C25.4645 7.58284 23.4628 6.75239 21.375 6.75001V4.50001C24.0594 4.50299 26.633 5.57068 28.5312 7.46884C30.4293 9.367 31.497 11.9406 31.5 14.625ZM22.8746 24.1673L25.3946 21.6473C25.7319 21.3099 26.1608 21.0789 26.6282 20.9829C27.0955 20.8869 27.5807 20.9301 28.0237 21.1073L31.0927 22.3358C31.5451 22.5167 31.9328 22.8291 32.2059 23.2326C32.479 23.636 32.625 24.1121 32.625 24.5993V30.1804C32.6258 30.5121 32.5589 30.8405 32.4283 31.1455C32.2978 31.4504 32.1064 31.7255 31.8659 31.954C31.6253 32.1824 31.3407 32.3593 31.0294 32.4739C30.7181 32.5885 30.3867 32.6384 30.0555 32.6205C8.54324 31.2818 4.19849 13.0613 3.39187 6.08401C3.3528 5.7429 3.38639 5.39739 3.49043 5.0702C3.59447 4.74301 3.76661 4.44155 3.99551 4.18566C4.22441 3.92976 4.5049 3.72523 4.81852 3.58551C5.13214 3.44579 5.47178 3.37405 5.81512 3.37501H11.2972C11.7844 3.37499 12.2605 3.52096 12.6639 3.79407C13.0674 4.06719 13.3798 4.45492 13.5607 4.90726L14.7881 7.97626C14.9652 8.41926 15.0085 8.90449 14.9125 9.37183C14.8165 9.83916 14.5855 10.2681 14.2481 10.6054L11.7281 13.1254C11.7281 13.1254 13.1254 22.9489 22.8746 24.1673Z" fill="white"/>
</svg>
