<svg width="45" height="31" viewBox="0 0 45 31" fill="none" xmlns="http://www.w3.org/2000/svg">
<path d="M22.6447 0H22.8951C25.2071 0.00827476 36.9219 0.0910228 40.0805 0.924015C41.0354 1.17824 41.9055 1.67377 42.6039 2.36109C43.3023 3.0484 43.8046 3.90343 44.0604 4.84073C44.3445 5.88887 44.5442 7.27627 44.6792 8.7078L44.7074 8.99466L44.7692 9.71181L44.7917 9.99866C44.9746 12.5197 44.9971 14.8808 44.9999 15.3966V15.6034C44.9971 16.1385 44.9718 18.6596 44.7692 21.2854L44.7467 21.5751L44.7214 21.8619C44.5808 23.4396 44.3727 25.0063 44.0604 26.1593C43.8054 27.0969 43.3034 27.9524 42.6049 28.6398C41.9063 29.3272 41.0358 29.8225 40.0805 30.076C36.8178 30.9366 24.4167 30.9972 22.6982 31H22.2988C21.4297 31 17.8351 30.9834 14.0661 30.8566L13.5879 30.84L13.3432 30.829L12.8622 30.8097L12.3813 30.7904C9.25921 30.6552 6.28621 30.4373 4.91644 30.0732C3.9615 29.82 3.09119 29.3251 2.39269 28.6382C1.69419 27.9513 1.19202 27.0964 0.936499 26.1593C0.624292 25.0091 0.416154 23.4396 0.27552 21.8619L0.253019 21.5723L0.230517 21.2854C0.091705 19.4164 0.0147847 17.5435 -0.00012207 15.6696L-0.00012207 15.3304C0.00550328 14.7373 0.0280047 12.688 0.179889 10.4262L0.199578 10.1421L0.208016 9.99866L0.230517 9.71181L0.292396 8.99466L0.320523 8.7078C0.455531 7.27627 0.655231 5.88611 0.939312 4.84073C1.1944 3.90306 1.69638 3.04762 2.39491 2.36019C3.09344 1.67275 3.96398 1.17748 4.91925 0.924015C6.28902 0.565442 9.26202 0.344781 12.3841 0.206869L12.8622 0.187561L13.346 0.171012L13.5879 0.162737L14.0689 0.14343C16.7457 0.0589569 19.4237 0.0120615 22.1019 0.00275838H22.6447V0ZM18.001 8.85399V22.1433L29.6933 15.5014L18.001 8.85399Z" fill="white"/>
</svg>
